<svg xmlns="http://www.w3.org/2000/svg" aria-hidden="true" style="position: absolute; width: 0; height: 0; overflow: hidden;" version="1.1">
<defs>
<symbol id="email-icon" viewBox="0 0 32 32"><path d="M28.45 5.33H3.55a1.78 1.78 0 0 0-1.77 1.78V24.9a1.78 1.78 0 0 0 1.78 1.78h24.89a1.78 1.78 0 0 0 1.77-1.78V7.1a1.78 1.78 0 0 0-1.77-1.78zM27.07 24.9H5.03l6.22-6.44-1.28-1.23-6.41 6.64V8.46l11.05 11a1.78 1.78 0 0 0 2.5 0L28.44 8.19v15.55L21.9 17.2l-1.25 1.25 6.43 6.44zM4.72 7.1H27L15.86 18.2 4.72 7.1z"/></symbol>
<symbol id="location-icon" viewBox="0 0 32 32"><path d="M25 13a9 9 0 1 0-18 0c0 3.7 2.95 8.5 9 14.27 6.05-5.77 9-10.58 9-14.27zm-9 17C8.67 23.33 5 17.67 5 13a11 11 0 0 1 22 0c0 4.67-3.67 10.33-11 17z" /><path d="M16 16a3 3 0 1 0 0-6 3 3 0 0 0 0 6zm0 2a5 5 0 1 1 0-10 5 5 0 0 1 0 10z"/></symbol>
<symbol id="instagram-icon" viewBox="0 0 32 32"><path d="M16 0c4.36 0 4.9.03 6.6.1 1.67.06 2.84.34 3.88.75 1.07.41 1.96.95 2.84 1.83s1.42 1.77 1.83 2.84c.4 1.04.7 2.21.76 3.88.06 1.7.09 2.24.09 6.6s-.03 4.9-.1 6.6a11.27 11.27 0 0 1-.75 3.88c-.41 1.07-.95 1.96-1.83 2.84s-1.77 1.42-2.84 1.83c-1.04.4-2.21.7-3.88.76-1.7.06-2.24.09-6.6.09s-4.9-.03-6.6-.1a11.27 11.27 0 0 1-3.88-.75c-1.07-.41-1.95-.95-2.84-1.83S1.26 27.55.85 26.48c-.4-1.04-.7-2.21-.75-3.88C.03 20.9 0 20.36 0 16s.03-4.9.1-6.6c.06-1.67.34-2.84.75-3.88.41-1.07.95-1.95 1.83-2.84S4.45 1.26 5.52.85C6.56.45 7.73.15 9.4.1 11.1.03 11.65 0 16 0zm0 2.08c-4.54 0-5.08.04-6.85.1a9.38 9.38 0 0 0-3.15.6A5.58 5.58 0 0 0 2.78 6c-.22.6-.54 1.51-.6 3.15-.07 1.77-.1 2.3-.1 6.85s.03 5.08.1 6.85c.06 1.64.38 2.55.6 3.15A5.58 5.58 0 0 0 6 29.22c.6.23 1.51.54 3.15.6 1.77.07 2.3.1 6.85.1s5.08-.03 6.85-.1a9.38 9.38 0 0 0 3.15-.6 5.58 5.58 0 0 0 3.22-3.21c.22-.6.54-1.52.6-3.16.07-1.77.1-2.3.1-6.85s-.03-5.08-.1-6.85a9.38 9.38 0 0 0-.6-3.15A5.58 5.58 0 0 0 26 2.78a9.38 9.38 0 0 0-3.15-.6c-1.77-.06-2.3-.1-6.85-.1zm0 20.33a6.41 6.41 0 1 0 0-12.82 6.41 6.41 0 0 0 0 12.82zm0-14.62c4.54 0 8.2 3.67 8.2 8.21s-3.66 8.2-8.2 8.2A8.2 8.2 0 1 1 16 7.8zm10.48-.31c0 1.07-.89 1.9-1.96 1.9s-1.9-.83-1.9-1.9.83-1.96 1.9-1.96c1.07 0 1.96.89 1.96 1.96z"/></symbol>
<symbol id="tumblr-icon" viewBox="0 0 32 32"><path d="M16.5 2v7h7.13v2.99h-7.09l-.01 8.7c0 1.62.08 2.65.26 3.11.27.73 1.25 1.66 3.08 1.66 1.42 0 3.33-.42 4.77-1.48v4.67c-1.2.56-2.31.79-3.28 1.01-.97.23-2.02.34-3.15.34-1.25 0-4.87-.03-6.36-3.76a8.22 8.22 0 0 1-.4-2.92V11.99H7.36l.02-3.06c1.36 0 5.42-.81 5.42-6.93h3.7zm0-2h-3.7c-1.12 0-2.03.9-2.03 2 0 4.57-2.6 4.93-3.39 4.93-1.11 0-2.02.89-2.03 1.99l-.02 3.06a1.98 1.98 0 0 0 1.25 1.86c.25.1.51.15.78.15h2.06v9.33a10 10 0 0 0 .54 3.65c.92 2.3 3.09 5.03 8.25 5.03 1.28 0 2.5-.13 3.61-.4l.23-.04c.95-.22 2.16-.5 3.46-1.1a2.02 2.02 0 0 0 1.15-1.81v-4.67a1.97 1.97 0 0 0-1.12-1.78 2.05 2.05 0 0 0-2.12.18 6.3 6.3 0 0 1-3.55 1.08c-.81 0-1.11-.29-1.18-.37-.03-.15-.13-.74-.13-2.4v-6.7h5.06c1.13 0 2.04-.9 2.04-2v-3c0-1.1-.91-2-2.04-2h-5.08V2c0-1.1-.91-2-2.03-2z"/></symbol>
<symbol id="twitter-icon" viewBox="0 0 32 32"><path d="M21.38 4.71c1.66 0 3.15.7 4.2 1.8a11.6 11.6 0 0 0 3.64-1.38 5.72 5.72 0 0 1-2.52 3.15c1.16-.14 2.27-.44 3.3-.9a11.67 11.67 0 0 1-2.87 2.95l.02.74c0 7.53-5.78 16.22-16.35 16.22-3.24 0-6.26-.95-8.8-2.57a11.6 11.6 0 0 0 8.5-2.36 5.74 5.74 0 0 1-5.36-3.95 5.78 5.78 0 0 0 2.6-.1 5.71 5.71 0 0 1-4.62-5.59v-.07c.78.42 1.66.68 2.6.71a5.68 5.68 0 0 1-1.77-7.6 16.36 16.36 0 0 0 11.84 5.95 5.72 5.72 0 0 1 5.6-7zM30 7.38zm-8.62-4.71a7.75 7.75 0 0 0-7.67 6.72 14.42 14.42 0 0 1-8.23-4.95 2.02 2.02 0 0 0-1.69-.72 1.97 1.97 0 0 0-1.55.98 7.72 7.72 0 0 0-.6 6.58c-.33.37-.51.86-.51 1.37v.07c0 2 .77 3.87 2.05 5.26-.07.35-.05.72.06 1.07a7.7 7.7 0 0 0 2.3 3.47 9.75 9.75 0 0 1-3.54.16A2 2 0 0 0 .1 24.05c-.3.9.04 1.9.83 2.41a18.33 18.33 0 0 0 9.87 2.87c11.37 0 18.2-9.1 18.34-18 .93-.78 1.75-1.7 2.45-2.72a2.06 2.06 0 0 0-.46-2.9 2.07 2.07 0 0 0-.65-2.16 1.97 1.97 0 0 0-2.26-.19c-.67.39-1.37.7-2.12.92a7.78 7.78 0 0 0-4.72-1.61z"/></symbol>
<symbol id="youtube-icon" viewBox="0 0 32 32"><path d="M29.38 5.43C28.52 4.82 26.11 4 16 4 5.16 4 3.55 4.94 3.03 5.24.3 6.87.03 14.06 0 15.51c.03 1.93.35 8.34 3.03 9.92.51.3 2.11 1.24 12.96 1.24 10.12 0 12.53-.82 13.4-1.43 2.33-1.65 2.6-7.36 2.61-9.75 0-1.92-.21-8.36-2.62-10.06zm-1.16 18.22c-.35.25-2.35 1.05-12.23 1.05-9.55 0-11.55-.73-11.93-.95-.97-.57-1.98-3.6-2.06-8.24.08-4.64 1.1-8.02 2.06-8.58.38-.23 2.4-.96 11.93-.96 9.87 0 11.88.8 12.23 1.06.85.6 1.77 3.8 1.78 8.47-.01 4.74-.94 7.55-1.78 8.15zm-5.71-9.09-9-5.43a1 1 0 0 0-1.37.35.99.99 0 0 0-.14.5v10.85c0 .27.1.52.3.7s.44.29.7.29c.18 0 .36-.05.52-.14l8.99-5.44c.3-.17.48-.5.48-.84s-.18-.66-.48-.84zM14 19.09v-7.38l6.05 3.7L14 19.08z"/></symbol>
<symbol id="logo-icon" viewBox="0 0 32 32"><path d="M31.98 15.8C31.33 3.75 25.52 1.99 20.84 1.99c-1.18 0-2.3.11-3.23.2-.01-.55.01-1.14.1-1.78V.37c0-.2-.36-.37-.8-.37-.43 0-.79.16-.79.37-.12.65-.28 1.3-.49 1.92C9.45 2.33 1.31 3.4.07 15.4-.83 24.1 7.11 32 16.05 32s16.4-7.44 15.93-16.2zM17.94 3.88l.68-.06c-.28.12-.56.24-.81.37l-.05-.3.18-.01zM14.97 4l-.2.45c-.16-.16-.32-.3-.5-.43a41 41 0 0 1 .7-.02zm12.04 21.32a14.62 14.62 0 0 1-10.96 4.96c-4.27 0-8.51-2.03-11.35-5.42a12.48 12.48 0 0 1-3.04-9.3C2.3 9.5 4.8 6.6 8.03 5.22c3.12-.62 6.06.52 6.06.52s-6.68-1.78-9.3 7.42c3.3-5.5 8.97-3.88 10.47-5.91 0 3.92 2.66 2.02 4 3.79 1.73 2.27 2.37 6.34 4.36 7.15-1.96-4.52 1.25-4.34-3.26-10.4 2.37 1.59 3.6-.01 6.85 1.41C24.43 4.33 20 5.73 20 5.73s1.81-1.76 3.73-1.71c3.24.8 6.21 3.54 6.66 11.88.19 3.41-1.01 6.76-3.37 9.43z" /></symbol>
<symbol id="navigation-arrow" viewBox="0 0 16 16" ><path d="M2.14121 10.8664C2.23353 10.9521 2.35746 11 2.48652 11C2.61557 11 2.7395 10.9521 2.83182 10.8664L8 6.08274L13.1671 10.8664C13.2595 10.9521 13.3834 11 13.5125 11C13.6415 11 13.7654 10.9521 13.8578 10.8664C13.9028 10.8248 13.9386 10.7751 13.963 10.7201C13.9874 10.6651 14 10.6061 14 10.5464C14 10.4868 13.9874 10.4277 13.963 10.3727C13.9386 10.3178 13.9028 10.268 13.8578 10.2264L8.36081 5.13935C8.26428 5.05 8.13481 5 8 5C7.8652 5 7.73572 5.05 7.63919 5.13935L2.14225 10.2264C2.09723 10.268 2.06145 10.3178 2.03702 10.3727C2.01259 10.4277 2 10.4868 2 10.5464C2 10.6061 2.01259 10.6651 2.03702 10.7201C2.06145 10.7751 2.09723 10.8248 2.14225 10.8664L2.14121 10.8664Z" /></symbol>
</defs>
</svg>

